<?xml version="1.0" encoding="utf-8"?>
<!-- Generator: Adobe Illustrator 24.1.3, SVG Export Plug-In . SVG Version: 6.00 Build 0)  -->
<svg version="1.1" id="Layer_1" xmlns="http://www.w3.org/2000/svg" xmlns:xlink="http://www.w3.org/1999/xlink" x="0px" y="0px"
	 viewBox="0 0 30 30" style="enable-background:new 0 0 30 30;" xml:space="preserve">
<style type="text/css">
	.st0{fill:#4D4D4D;}
</style>
<path class="st0" d="M21.5,12.6H10.6v-6c0-2.4,2-4.4,4.4-4.4c2.4,0,4.4,2,4.4,4.4v2.9h2.3V6.6C21.6,3,18.7,0,15,0
	c-3.7,0-6.6,3-6.6,6.6v6h0.1c-1.7,0-3,1.4-3,3V27c0,1.7,1.3,3,3,3h13c1.7,0,3-1.3,3-3V15.6C24.5,14,23.2,12.6,21.5,12.6z M15.8,20.8
	v3.3c0,0.3-0.3,0.6-0.6,0.6h-0.5c-0.3,0-0.6-0.3-0.6-0.6v-3.3c-0.5-0.3-0.8-1-0.7-1.6c0.1-0.6,0.6-1,1.2-1.2c1-0.2,1.9,0.5,1.9,1.5
	C16.5,20.1,16.3,20.5,15.8,20.8z"/>
</svg>
