<?xml version="1.0" encoding="utf-8"?>
<!-- Generator: Adobe Illustrator 24.1.3, SVG Export Plug-In . SVG Version: 6.00 Build 0)  -->
<svg version="1.1" id="Layer_1" xmlns="http://www.w3.org/2000/svg" xmlns:xlink="http://www.w3.org/1999/xlink" x="0px" y="0px"
	 viewBox="0 0 30 30" style="enable-background:new 0 0 30 30;" xml:space="preserve">
<style type="text/css">
	.st0{fill:#4D4D4D;}
</style>
<path class="st0" d="M22.3,10.7h0.1V7.4C22.4,3.3,19.1,0,15,0c-4.1,0-7.4,3.3-7.4,7.4v3.3h0.1c-1.8,0-3.3,1.5-3.3,3.3v12.7
	c0,1.8,1.5,3.3,3.3,3.3h14.5c1.9,0,3.3-1.5,3.3-3.3V14C25.6,12.2,24.1,10.7,22.3,10.7z M15,2.6c2.7,0,4.8,2.2,4.8,4.8v3.3h-9.7V7.4
	C10.2,4.7,12.3,2.6,15,2.6z M15.9,19.8v3.6c0,0.4-0.3,0.6-0.6,0.6h-0.6c-0.4,0-0.6-0.3-0.6-0.6v-3.6c-0.6-0.4-0.9-1.1-0.7-1.8
	c0.1-0.6,0.7-1.2,1.3-1.3c1.1-0.2,2.1,0.6,2.1,1.7C16.7,18.9,16.4,19.5,15.9,19.8z"/>
</svg>
