<svg width="13" height="15" viewBox="0 0 13 15" fill="none" xmlns="http://www.w3.org/2000/svg" id="Concur">
<path d="M0.95 7.29424C0.95 11.4527 4.0355 14.2947 7.89005 14.2947C10.0582 14.2947 11.5539 13.4433 12.6155 12.2694C13.019 11.8232 12.8407 11.142 12.3183 10.8655C11.8548 10.6201 11.2945 10.7873 10.9347 11.1514C10.1929 11.9021 9.12102 12.4017 7.89005 12.4017C5.20054 12.4017 3.12507 10.2711 3.12507 7.29424C3.12507 4.29733 5.20041 2.18677 7.89005 2.18677C9.11938 2.18677 10.1901 2.68504 10.9318 3.43412C11.2935 3.7995 11.8565 3.96751 12.3221 3.72099C12.8437 3.44486 13.0248 2.76604 12.6229 2.31906C11.5672 1.14501 10.058 0.29375 7.89005 0.29375C4.0355 0.29375 0.95 3.13576 0.95 7.29424Z" fill="#7ABB4A" stroke="#7ABB4A" stroke-width="0.1"/>
</svg>
