<svg width="49" height="50" viewBox="0 0 49 50" fill="none" id="bluetooth" xmlns="http://www.w3.org/2000/svg">
<path fill-rule="evenodd" clip-rule="evenodd" d="M24.5 50C38.031 50 49 38.8071 49 25C49 11.1929 38.031 0 24.5 0C10.969 0 0 11.1929 0 25C0 38.8071 10.969 50 24.5 50ZM33.7252 18.66L25.3436 25.0875L33.7252 31.515C33.8756 31.63 33.9976 31.7793 34.0817 31.9509C34.1658 32.1226 34.2096 32.3119 34.2096 32.5039C34.2096 32.6959 34.1658 32.8852 34.0817 33.0569C33.9976 33.2285 33.8756 33.3778 33.7252 33.4927L24.0536 40.9091C23.874 41.0468 23.6604 41.1307 23.4368 41.1513C23.2132 41.1719 22.9884 41.1285 22.7876 41.0258C22.5868 40.9232 22.4179 40.7654 22.2998 40.5701C22.1818 40.3748 22.1193 40.1498 22.1193 39.9202V27.5596L16.7999 31.6386C16.5434 31.8353 16.221 31.9198 15.9036 31.8734C15.5862 31.8271 15.2998 31.6537 15.1074 31.3914C14.915 31.1292 14.8324 30.7995 14.8777 30.475C14.9002 30.3143 14.9534 30.1597 15.0343 30.02C15.1152 29.8804 15.2222 29.7583 15.3492 29.6609L21.3129 25.0875L15.3492 20.5141C15.2222 20.4167 15.1152 20.2947 15.0343 20.155C14.9534 20.0153 14.9002 19.8607 14.8777 19.7001C14.8553 19.5394 14.864 19.3757 14.9034 19.2185C14.9428 19.0612 15.0121 18.9135 15.1074 18.7836C15.2026 18.6538 15.322 18.5443 15.4586 18.4616C15.5952 18.3789 15.7464 18.3246 15.9036 18.3016C16.0607 18.2787 16.2208 18.2876 16.3746 18.3279C16.5284 18.3681 16.6729 18.439 16.7999 18.5364L22.1193 22.6154V10.2548C22.1193 10.0252 22.1818 9.80022 22.2998 9.60495C22.4179 9.40969 22.5868 9.25188 22.7876 9.14922C22.9884 9.04657 23.2132 9.00311 23.4368 9.02372C23.6604 9.04434 23.874 9.12821 24.0536 9.26594L33.7252 16.6823C33.8756 16.7973 33.9976 16.9465 34.0817 17.1182C34.1658 17.2898 34.2096 17.4792 34.2096 17.6712C34.2096 17.8631 34.1658 18.0525 34.0817 18.2241C33.9976 18.3958 33.8756 18.545 33.7252 18.66ZM30.9845 17.6712L24.5372 12.7269V22.6154L30.9845 17.6712ZM30.9845 32.5039L24.5372 27.5596V37.4481L30.9845 32.5039Z" fill="#7ABB4A"/>
</svg>
