<svg xmlns="http://www.w3.org/2000/svg" width="50" height="50" id="tripType" viewBox="-0.1 -15 65 45" fill="none"><path cx="51.3081" cy="51.3081" r="43.8081" stroke="#7ABB4A" stroke-width="2.8761061946902657" d="M18.238 9.838a8.4 8.4 0 0 1 -8.4 8.4 8.4 8.4 0 0 1 -8.4 -8.4 8.4 8.4 0 0 1 16.8 0z"></path><path cx="168.583" cy="51.3081" r="43.8081" stroke="#7ABB4A" stroke-width="2.8761061946902657" d="M40.724 9.838a8.4 8.4 0 0 1 -8.399 8.4 8.4 8.4 0 0 1 -8.4 -8.4 8.4 8.4 0 0 1 16.799 0z"></path><path cx="287.692" cy="51.3081" r="51.3081" fill="#7ABB4A" d="M65 9.838a9.836 9.836 0 0 1 -9.838 9.838 9.836 9.836 0 0 1 -9.838 -9.838 9.838 9.838 0 0 1 19.676 0"></path></svg>