<svg xmlns="http://www.w3.org/2000/svg" width="50" height="51" id="commute" viewBox="0 0 31 51" id="commute" fill="none"><g clip-path="url(#clip0_2773_924)"><path d="M19.82 9.911c-2.709 0.013 -4.925 -2.2 -4.938 -4.931C14.873 2.244 17.063 0.013 19.776 0s4.924 2.2 4.937 4.931c0.013 2.732 -2.181 4.967 -4.894 4.98" fill="#7ABB4A"/><path d="M24.944 16.779c0.984 -6.266 -7.968 -8.141 -9.405 -1.765l-2.447 12.243 -9.082 0.026c-2.63 0 -4.01 2.143 -4.01 4.123v16.402c0 4.044 5.712 4.018 5.712 -0.084v-12.7h11.582c2.708 0 4.402 -1.87 4.833 -4.017z" fill="#7ABB4A"/><path d="M30.783 21.808c0.605 -3.483 -3.906 -4.313 -4.541 -0.83L24.248 31.88c-0.453 2.28 -2.103 4.238 -4.463 4.932 -0.723 0.21 -1.463 0.241 -2.177 0.294l-6.57 0.026c-3.475 -0.026 -3.449 4.61 0.06 4.61l6.88 -0.056c1.062 0 2.125 -0.132 3.183 -0.453 4.066 -1.207 6.905 -4.61 7.65 -8.55l1.968 -10.876z" fill="#7ABB4A"/><path d="M6.153 26.516c-3.135 0.483 -3.827 -4.08 -0.688 -4.562l9.661 -1.485c3.14 -0.483 3.827 4.084 0.688 4.567L6.148 26.52z" fill="#7ABB4A"/></g><defs><clipPath id="clip0_2773_924"><path width="31" height="50.82" fill="white" d="M0 0H31V50.82H0V0z"/></clipPath></defs></svg>