<svg width="50" height="50.63" id="cmileage" viewBox="0 0 50 50.63" fill="none" xmlns="http://www.w3.org/2000/svg"><path x="179.017" y="5.38009" width="53.6808" height="55.3889" rx="10.3727" fill="#7ABB4A" stroke="#7ABB4A" stroke-width="2.1643487394957983" d="M39.788 1.13H46.707A2.179 2.179 0 0 1 48.886 3.309V10.587A2.179 2.179 0 0 1 46.707 12.767H39.788A2.179 2.179 0 0 1 37.609 10.587V3.309A2.179 2.179 0 0 1 39.788 1.13z"/><path x="179.017" y="95.1867" width="53.6808" height="53.5854" rx="10.3727" fill="#7ABB4A" stroke="#7ABB4A" stroke-width="2.1643487394957983" d="M39.788 19.997H46.707A2.179 2.179 0 0 1 48.886 22.176V29.076A2.179 2.179 0 0 1 46.707 31.255H39.788A2.179 2.179 0 0 1 37.609 29.076V22.176A2.179 2.179 0 0 1 39.788 19.997z"/><path x="179.017" y="180.32" width="53.6808" height="55.3889" rx="10.3727" fill="#7ABB4A" stroke="#7ABB4A" stroke-width="2.1643487394957983" d="M39.788 37.882H46.707A2.179 2.179 0 0 1 48.886 40.061V47.34A2.179 2.179 0 0 1 46.707 49.519H39.788A2.179 2.179 0 0 1 37.609 47.34V40.061A2.179 2.179 0 0 1 39.788 37.882z"/><path d="M16.098 25.816h22.023" stroke="#7ABB4A" stroke-width="2.9617857142857145"/><path d="M37.932 6.38h-5.516c-2.825 0 -5.116 2.29 -5.116 5.116v27.278c0 2.825 2.29 5.116 5.116 5.116h5.516" stroke="#7ABB4A" stroke-width="2.9617857142857145"/><path x="5.50411" y="86.1711" width="71.7552" height="71.62" rx="10.3727" fill="#7ABB4A" stroke="#7ABB4A" stroke-width="2.1643487394957983" d="M3.335 18.103H14.052A2.179 2.179 0 0 1 16.231 20.282V30.97A2.179 2.179 0 0 1 14.052 33.149H3.335A2.179 2.179 0 0 1 1.156 30.97V20.282A2.179 2.179 0 0 1 3.335 18.103z"/><path x="179.017" y="5.38009" width="53.6808" height="55.3889" rx="10.3727" fill="#7ABB4A" stroke="#7ABB4A" stroke-width="2.1643487394957983" d="M39.788 1.13H46.707A2.179 2.179 0 0 1 48.886 3.309V10.587A2.179 2.179 0 0 1 46.707 12.767H39.788A2.179 2.179 0 0 1 37.609 10.587V3.309A2.179 2.179 0 0 1 39.788 1.13z"/><path x="179.017" y="95.1867" width="53.6808" height="53.5854" rx="10.3727" fill="#7ABB4A" stroke="#7ABB4A" stroke-width="2.1643487394957983" d="M39.788 19.997H46.707A2.179 2.179 0 0 1 48.886 22.176V29.076A2.179 2.179 0 0 1 46.707 31.255H39.788A2.179 2.179 0 0 1 37.609 29.076V22.176A2.179 2.179 0 0 1 39.788 19.997z"/><path x="179.017" y="180.32" width="53.6808" height="55.3889" rx="10.3727" fill="#7ABB4A" stroke="#7ABB4A" stroke-width="2.1643487394957983" d="M39.788 37.882H46.707A2.179 2.179 0 0 1 48.886 40.061V47.34A2.179 2.179 0 0 1 46.707 49.519H39.788A2.179 2.179 0 0 1 37.609 47.34V40.061A2.179 2.179 0 0 1 39.788 37.882z"/><path d="M16.098 25.816h22.023" stroke="#7ABB4A" stroke-width="2.9617857142857145"/><path d="M37.932 6.38h-5.516c-2.825 0 -5.116 2.29 -5.116 5.116v27.278c0 2.825 2.29 5.116 5.116 5.116h5.516" stroke="#7ABB4A" stroke-width="2.9617857142857145"/><path x="5.50411" y="86.1711" width="71.7552" height="71.62" rx="10.3727" fill="#7ABB4A" stroke="#7ABB4A" stroke-width="2.1643487394957983" d="M3.335 18.103H14.052A2.179 2.179 0 0 1 16.231 20.282V30.97A2.179 2.179 0 0 1 14.052 33.149H3.335A2.179 2.179 0 0 1 1.156 30.97V20.282A2.179 2.179 0 0 1 3.335 18.103z"/></svg>
