<svg width="50" height="50" id="debug" viewBox="0 0 50 50" fill="none" xmlns="http://www.w3.org/2000/svg">
<path d="M43.135 26.9305H23.2023V7.04158C23.2016 6.80912 23.1088 6.58637 22.944 6.42199C22.7793 6.25761 22.556 6.16496 22.3231 6.16426C18.0317 6.1634 13.8365 7.4324 10.268 9.81077C6.69948 12.1891 3.91801 15.57 2.27538 19.5258C0.632743 23.4817 0.202727 27.8347 1.03972 32.0344C1.87671 36.2341 3.9431 40.0918 6.97756 43.1195C10.012 46.1473 13.8782 48.2092 18.0871 49.0443C22.2961 49.8795 26.6587 49.4504 30.6233 47.8114C34.5878 46.1724 37.9761 43.397 40.3598 39.8364C42.7434 36.2757 44.0152 32.0897 44.0143 27.8078C44.0146 27.6925 43.9921 27.5782 43.9481 27.4716C43.904 27.365 43.8393 27.2682 43.7575 27.1866C43.6758 27.1051 43.5788 27.0405 43.4719 26.9965C43.3651 26.9526 43.2506 26.9301 43.135 26.9305Z" fill="#7ABB4A"/>
<path d="M28.1613 0.330078C27.9283 0.330772 27.7051 0.423427 27.5404 0.587807C27.3756 0.752186 27.2828 0.974933 27.2821 1.2074V21.9824C27.2828 22.2148 27.3756 22.4376 27.5404 22.602C27.7051 22.7663 27.9283 22.859 28.1613 22.8597H48.4194C48.5156 22.86 48.6111 22.8422 48.7007 22.807C48.7903 22.8422 48.8858 22.86 48.9821 22.8597C49.2151 22.859 49.4383 22.7663 49.603 22.602C49.7678 22.4376 49.8606 22.2148 49.8613 21.9824C49.8553 16.2417 47.5671 10.7378 43.4989 6.67856C39.4306 2.61927 33.9147 0.336116 28.1613 0.330078Z" fill="#7ABB4A"/>
</svg>
