<svg xmlns="http://www.w3.org/2000/svg" width="49" height="49" viewBox="0 0 49 49" id="FAQ" fill="none"><path fill-rule="evenodd" clip-rule="evenodd" d="M24.218 48.966c13.266 0 24.02 -10.754 24.02 -24.02s-10.754 -24.02 -24.02 -24.02 -24.02 10.754 -24.02 24.02 10.754 24.02 24.02 24.02m-6.457 -34.793c0.16 -0.238 0.403 -0.397 0.644 -0.397 0.645 0 1.047 0.793 0.725 1.348l-3.303 4.836a0.836 0.836 0 0 1 -1.369 0l-1.692 -2.458c-0.242 -0.317 -0.161 -0.871 0.241 -1.11 0.322 -0.238 0.886 -0.159 1.128 0.238l0.967 1.427zm3.142 2.854c0 -0.396 0.322 -0.793 0.805 -0.793h13.214c0.403 0 0.805 0.317 0.805 0.793a0.8 0.8 0 0 1 -0.805 0.793H21.708c-0.403 0 -0.805 -0.317 -0.805 -0.793m-3.142 5.312c0.16 -0.238 0.403 -0.397 0.644 -0.397 0.645 0 1.128 0.714 0.725 1.268l-3.303 4.915a0.836 0.836 0 0 1 -1.369 0l-1.692 -2.458c-0.242 -0.317 -0.161 -0.871 0.241 -1.11 0.322 -0.237 0.886 -0.159 1.128 0.238l0.967 1.427zm3.061 2.933c0 -0.476 0.322 -0.793 0.806 -0.793h13.293c0.483 0 0.886 0.317 0.886 0.793 0 0.396 -0.404 0.793 -0.886 0.793H21.708c-0.483 0 -0.886 -0.317 -0.886 -0.793m-3.061 5.153c0.16 -0.237 0.403 -0.396 0.644 -0.396 0.645 0 1.047 0.793 0.725 1.347l-3.303 4.915a0.836 0.836 0 0 1 -1.369 0l-1.692 -2.458c-0.242 -0.396 -0.161 -0.951 0.241 -1.188 0.322 -0.238 0.886 -0.159 1.128 0.237l0.967 1.428zm3.061 2.933c0 -0.476 0.322 -0.871 0.806 -0.871q0.055 -0.002 0.06 0.007c0.004 0.01 -0.016 0.029 -0.06 0.072h13.293c0.483 0 0.886 0.317 0.886 0.793s-0.404 0.793 -0.886 0.793H21.708c-0.483 0 -0.886 -0.317 -0.886 -0.793" fill="#7ABB4A"/></svg>