<svg width="51" height="51" viewBox="0 0 51 51" id="started" fill="none" xmlns="http://www.w3.org/2000/svg">
<path d="M12.2191 27.9836C12.2481 27.9546 12.2501 27.9523 12.2191 27.9836Z" fill="#7ABB4A"/>
<path d="M49.042 21.0717L46.5557 20.4738C46.015 18.1135 45.0839 15.8704 43.7823 13.7848L45.0424 11.6691C45.209 11.3891 45.2776 11.0615 45.2372 10.7381C45.1967 10.4148 45.0497 10.1142 44.8192 9.88381L40.6899 5.75389C40.4593 5.52372 40.1588 5.37685 39.8356 5.33644C39.5123 5.29603 39.1849 5.36438 38.9048 5.53072L36.7894 6.79094C34.704 5.48921 32.4613 4.55794 30.1012 4.01725L29.5033 1.53061C29.424 1.21392 29.2412 0.932815 28.9839 0.731938C28.7265 0.531061 28.4095 0.42193 28.083 0.421875H22.2245C21.898 0.421913 21.581 0.531038 21.3236 0.731917C21.0663 0.932797 20.8834 1.21391 20.8041 1.53061L20.2063 4.01725C17.8462 4.55794 15.6035 5.48921 13.5181 6.79094L11.4027 5.53072C11.1227 5.36405 10.7952 5.2955 10.4719 5.33592C10.1486 5.37634 9.84797 5.52342 9.61763 5.75389L5.48805 9.88371C5.25764 10.1141 5.11059 10.4147 5.07018 10.7381C5.02977 11.0614 5.09829 11.389 5.2649 11.669L6.52496 13.7847C5.2234 15.8703 4.29225 18.1134 3.75163 20.4737L1.2653 21.0716C0.948652 21.151 0.667583 21.3338 0.466732 21.5912C0.265881 21.8486 0.156764 22.1657 0.156709 22.4921V28.3515C0.156709 29.0238 0.614423 29.6103 1.26667 29.772L3.75299 30.3699C4.11344 31.9339 4.65592 33.4366 5.3526 34.8778C6.42828 33.7976 11.8308 28.3714 12.2191 27.9836C12.2 27.8849 11.9907 26.0084 11.9851 25.6429C11.8605 18.1784 17.8721 12.2396 25.1593 12.2396C32.4964 12.2396 38.3471 18.1565 38.3195 25.4675C38.288 32.2288 33.2422 37.9848 26.195 38.5112C25.8901 38.5347 24.5118 38.738 22.5906 38.3593L15.7165 45.2342C17.152 45.9268 18.6488 46.4658 20.2062 46.825L20.804 49.3131C20.8834 49.6298 21.0662 49.9109 21.3235 50.1117C21.5809 50.3126 21.8979 50.4218 22.2244 50.4218H28.0829C28.4094 50.4218 28.7264 50.3127 28.9838 50.1118C29.2411 49.9109 29.4239 49.6298 29.5033 49.3131L30.1011 46.8264C32.4612 46.2857 34.7039 45.3545 36.7893 44.0528L38.9047 45.313C39.4782 45.6564 40.2149 45.5619 40.6898 45.0898L44.8191 40.9599C45.0496 40.7295 45.1966 40.4289 45.237 40.1055C45.2774 39.7822 45.2089 39.4546 45.0423 39.1746L43.7822 37.0589C45.0853 34.9733 46.0149 32.7302 46.5556 30.3684L49.0404 29.772C49.6927 29.6103 50.1504 29.0238 50.1504 28.3515V22.4921C50.1504 22.1657 50.0413 21.8486 49.8405 21.5913C49.6397 21.3339 49.3586 21.1511 49.042 21.0717Z" fill="#7ABB4A"/>
<path d="M35.0643 22.7439C35.0011 22.4961 34.8735 22.2695 34.6943 22.0871C34.5151 21.9046 34.2909 21.7729 34.0443 21.7053C33.7978 21.6379 33.5378 21.637 33.2908 21.7026C33.0438 21.7683 32.8186 21.8982 32.6381 22.0791L29.2958 25.422C28.1534 26.5646 26.2961 26.5646 25.1536 25.422C24.0121 24.2805 24.0121 22.4208 25.1536 21.2792L28.4973 17.935C28.678 17.7543 28.8076 17.5289 28.873 17.2818C28.9384 17.0347 28.9372 16.7747 28.8696 16.5282C28.802 16.2817 28.6704 16.0575 28.4881 15.8783C28.3058 15.6992 28.0793 15.5715 27.8317 15.5083C21.6514 13.9375 16.0897 17.9636 15.0697 23.5236C14.7421 25.3547 14.888 27.1786 15.4873 28.858C14.6539 29.6916 1.78141 42.5655 1.43542 42.9117C-0.28245 44.6298 -0.28245 47.425 1.46257 49.1702C3.19128 50.8091 5.83883 50.878 7.66588 49.1431L21.7178 35.0893C23.9681 35.8926 26.4778 35.8762 28.9337 35.0095C33.359 33.4478 36.4562 28.2066 35.0643 22.7439Z" fill="#7ABB4A"/>
</svg>
