<svg width="50" height="50" viewBox="0 0 50 50" id="ibeacon" fill="none" xmlns="http://www.w3.org/2000/svg"><path d="M49.924 24.913c0 13.759 -11.176 24.913 -24.962 24.913C11.176 49.826 0 38.672 0 24.913 0 11.154 11.176 0 24.962 0c13.786 0 24.962 11.154 24.962 24.913" fill="#7ABB4A"/><path d="M28.941 44.517v-0.139c0 -0.584 0.003 -1.168 -0.003 -1.752 -0.001 -0.109 0.034 -0.143 0.137 -0.167 5.909 -1.4 10.734 -5.777 12.705 -11.52 0.497 -1.447 0.81 -2.932 0.908 -4.459 0.302 -4.704 -1.011 -8.909 -4 -12.553 -2.622 -3.196 -5.985 -5.222 -10.03 -6.101 -1.579 -0.343 -3.178 -0.462 -4.788 -0.345 -4.77 0.346 -8.783 2.286 -12.013 5.806 -2.172 2.368 -3.569 5.149 -4.231 8.294 -0.312 1.482 -0.423 2.982 -0.343 4.494 0.193 3.627 1.372 6.903 3.569 9.792 2.58 3.391 5.956 5.591 10.102 6.599 0.061 0.015 0.105 0.026 0.104 0.109 -0.004 0.627 -0.002 1.255 -0.003 1.882 0 0.015 -0.004 0.031 -0.009 0.067 -3.521 -0.739 -6.629 -2.29 -9.274 -4.72 -3.829 -3.517 -6.007 -7.878 -6.417 -13.064 -0.867 -10.948 7.239 -20.098 17.574 -21.16 10.994 -1.13 20.349 6.797 21.623 17.118 1.344 10.894 -6.189 19.968 -15.611 21.817z" fill="white"/><path d="M21.056 40.452c-6.953 -1.751 -12.305 -8.397 -11.795 -16.305 0.535 -8.292 7.524 -14.916 16.095 -14.726 8.113 0.18 14.614 6.447 15.34 14.258 0.778 8.374 -4.941 15.096 -11.748 16.769 -0.002 -0.039 -0.006 -0.077 -0.006 -0.115 0 -0.596 0.001 -1.192 -0.002 -1.788 -0.001 -0.088 0.023 -0.127 0.113 -0.155 4.628 -1.441 8.153 -5.167 9.333 -9.863 0.382 -1.521 0.493 -3.063 0.351 -4.625 -0.494 -5.412 -4.207 -10.093 -9.369 -11.808 -1.689 -0.561 -3.423 -0.796 -5.199 -0.683 -5.863 0.37 -10.805 4.341 -12.439 9.988 -0.437 1.51 -0.609 3.055 -0.503 4.622 0.242 3.549 1.638 6.577 4.172 9.071 1.573 1.548 3.429 2.639 5.537 3.296 0.088 0.027 0.124 0.06 0.123 0.16 -0.006 0.595 -0.003 1.192 -0.003 1.788v0.116z" fill="white"/><path d="M21.046 36.323c-4.943 -1.726 -8.508 -6.807 -7.782 -12.622 0.746 -5.97 5.88 -10.426 11.896 -10.342 5.971 0.083 10.89 4.586 11.576 10.394 0.725 6.139 -3.209 11.006 -7.789 12.567 -0.002 -0.041 -0.007 -0.078 -0.007 -0.116 0 -0.635 0.002 -1.271 -0.003 -1.906 -0.001 -0.094 0.031 -0.134 0.115 -0.174 2.897 -1.379 4.819 -3.597 5.535 -6.733 0.759 -3.326 -0.053 -6.307 -2.328 -8.852 -1.475 -1.65 -3.339 -2.651 -5.516 -3.056 -3.504 -0.652 -7.172 0.721 -9.41 3.512 -1.115 1.391 -1.842 2.96 -2.077 4.727 -0.461 3.467 0.612 6.4 3.183 8.774 0.744 0.687 1.596 1.22 2.519 1.636 0.056 0.025 0.099 0.046 0.099 0.124 -0.003 0.667 -0.002 1.334 -0.002 2 0 0.018 -0.005 0.037 -0.009 0.065z" fill="white"/><path d="M21.056 31.95c-2.788 -1.595 -4.564 -4.914 -3.742 -8.53 0.81 -3.564 4.022 -6.168 7.816 -6.122 3.587 0.043 6.802 2.649 7.563 6.147 0.807 3.71 -1.063 6.977 -3.746 8.501 -0.002 -0.048 -0.006 -0.089 -0.006 -0.13 0 -0.714 0.001 -1.429 -0.002 -2.143 0 -0.073 0.03 -0.143 0.084 -0.194 1.038 -0.983 1.684 -2.179 1.844 -3.609 0.194 -1.738 -0.394 -3.481 -1.59 -4.757 -0.906 -0.967 -2.028 -1.562 -3.344 -1.766 -1.651 -0.256 -3.161 0.117 -4.496 1.124 -1.222 0.923 -1.991 2.148 -2.253 3.657 -0.342 1.972 0.206 3.694 1.586 5.137 0.211 0.221 0.305 0.426 0.293 0.728 -0.023 0.603 -0.007 1.207 -0.007 1.811z" fill="white"/><path d="M24.999 21.243c2.179 0.001 3.947 1.77 3.94 3.944 -0.006 2.182 -1.776 3.948 -3.948 3.937 -2.181 -0.01 -3.931 -1.762 -3.934 -3.939 -0.004 -2.176 1.764 -3.945 3.942 -3.943z" fill="white"/></svg>
