<svg width="49" height="49" id="locate" viewBox="0 0 49 49" fill="none" xmlns="http://www.w3.org/2000/svg">
<path fill-rule="evenodd" clip-rule="evenodd" d="M38.6332 22.8759C33.1381 22.8759 28.6664 27.3477 28.6664 32.8428C28.6664 34.941 29.313 36.9489 30.5533 38.6717L37.6944 48.0299C37.8517 48.2199 38.2597 48.6 38.6332 48.6H38.6346C39.0824 48.6 39.3051 48.3873 39.5734 48.0285L46.9954 38.2601C48.0453 36.6471 48.6 34.7741 48.6 32.8428C48.6 27.3477 44.1283 22.8759 38.6332 22.8759ZM34.3617 32.8428C34.3617 35.1982 36.2778 37.1143 38.6332 37.1143C40.9886 37.1143 42.9047 35.1982 42.9047 32.8428C42.9047 30.4874 40.9886 28.5713 38.6332 28.5713C36.2778 28.5713 34.3617 30.4874 34.3617 32.8428Z" fill="#7ABB4A"/>
<path fill-rule="evenodd" clip-rule="evenodd" d="M1.44159 0.000112748C1.69363 0.00328061 1.94034 0.073142 2.15662 0.202592L14.3332 7.45194V39.3443L0.691031 31.2159C0.480292 31.0894 0.305894 30.9104 0.184801 30.6965C0.0637088 30.4826 4.41225e-05 30.241 1.27891e-07 29.9951V1.42339C-0.000106645 1.1715 0.0666455 0.924099 0.193439 0.70645C0.320232 0.4888 0.502522 0.308704 0.721691 0.184557C0.94116 0.0605835 1.18955 -0.00305512 1.44159 0.000112748ZM31.5141 0.61674L45.0613 8.74564C45.272 8.8722 45.4464 9.05114 45.5675 9.26507C45.6886 9.47899 45.7523 9.72062 45.7523 9.96644V22.1975C43.7143 20.8302 41.2665 20.0283 38.6332 20.0283C35.9999 20.0283 33.5521 20.8302 31.5141 22.1975V0.61674ZM17.1809 7.45175L28.6664 0.61674V24.8876C26.9123 27.0803 25.8187 29.8227 25.8187 32.8427C25.8187 33.2059 25.8575 33.5632 25.8962 33.9205C25.9048 33.9993 25.9133 34.0781 25.9215 34.1569L17.1809 39.3443V7.45175Z" fill="#7ABB4A"/>
</svg>
