<svg width="50" height="45.614" id="manual-gps" viewBox="0 0 50 45.614" fill="none" xmlns="http://www.w3.org/2000/svg"><path d="M10.928 33.397c0.263 0.406 0.718 0.651 1.206 0.651s0.943 -0.246 1.205 -0.651l8.443 -13.017a11.114 11.114 0 0 0 1.795 -6.066c0 -6.218 -5.133 -11.276 -11.443 -11.276S0.596 8.096 0.596 14.315c0 2.158 0.62 4.256 1.795 6.065z" fill="#7ABB4A"/><path d="M47.989 0.219H36.546c-0.791 0 -1.43 0.631 -1.43 1.41v12.946a4.298 4.298 0 0 0 -1.592 0.991 4.211 4.211 0 0 0 -1.006 1.568h-1.789c-3.943 0 -7.152 3.162 -7.152 7.048s3.209 7.047 7.152 7.047h11.539c2.367 0 4.291 1.897 4.291 4.228 0 2.333 -1.925 4.23 -4.291 4.23h-26.105a4.281 4.281 0 0 0 -4.028 -2.819c-2.367 0 -4.291 1.896 -4.291 4.228 0 0.754 0.191 1.462 0.57 2.109a4.272 4.272 0 0 0 3.721 2.12c1.552 0 2.943 -0.793 3.723 -2.123 0.129 -0.221 0.207 -0.461 0.293 -0.696h26.118c3.944 0 7.153 -3.161 7.153 -7.047s-3.209 -7.047 -7.153 -7.047H30.729c-2.366 0 -4.291 -1.897 -4.291 -4.229s1.925 -4.228 4.291 -4.228h1.789a4.281 4.281 0 0 0 4.028 2.818c2.366 0 4.291 -1.896 4.291 -4.228 0 -1.836 -1.2 -3.386 -2.861 -3.969v-3.079h10.013c0.79 0 1.43 -0.631 1.43 -1.41V1.629c0 -0.779 -0.639 -1.41 -1.43 -1.41" fill="#7ABB4A"/><path cx="14.014" cy="15.6752" rx="5.21812" ry="5.142" fill="white" d="M16.87 13.75A4.577 4.511 0 0 1 12.293 18.261A4.577 4.511 0 0 1 7.716 13.75A4.577 4.511 0 0 1 16.87 13.75z"/></svg>