<svg width="61" height="54" viewBox="0 0 61 54" fill="none" id="mBurseProgram" xmlns="http://www.w3.org/2000/svg">
<path d="M1.35095 51.7074V19.6826C1.35095 19.5213 1.48165 19.3906 1.64288 19.3906H15.1385C15.2528 19.3906 15.3566 19.4573 15.404 19.5613L18.5091 26.3628C18.5565 26.4668 18.6603 26.5335 18.7746 26.5335H44.2267C44.388 26.5335 44.5187 26.6642 44.5187 26.8254V51.7074C44.5187 51.8686 44.388 51.9993 44.2267 51.9993H1.64288C1.48165 51.9993 1.35095 51.8686 1.35095 51.7074Z" stroke="#7ABB4A" stroke-width="2.7"/>
<path d="M8.80444 20.6332V11.6083C8.80444 11.4471 8.93514 11.3164 9.09637 11.3164H22.592C22.7063 11.3164 22.8101 11.3831 22.8575 11.4871L25.9625 18.2886C26.01 18.3926 26.1138 18.4593 26.2281 18.4593H51.6802C51.8414 18.4593 51.9721 18.59 51.9721 18.7512V43.6332C51.9721 43.7944 51.8414 43.9251 51.6802 43.9251H45.761" stroke="#7ABB4A" stroke-width="2.7"/>
<path d="M15.9471 11.3168V2.29193C15.9471 2.1307 16.0778 2 16.2391 2H29.7347C29.849 2 29.9528 2.06671 30.0002 2.17069L33.1052 8.97217C33.1527 9.07615 33.2565 9.14286 33.3708 9.14286H58.8229C58.9841 9.14286 59.1148 9.27356 59.1148 9.43478V34.3168C59.1148 34.478 58.9841 34.6087 58.8229 34.6087H52.9037" stroke="#7ABB4A" stroke-width="2.7"/>
<path d="M31.7856 43.6133L31.7856 46.0978" stroke="#7ABB4A" stroke-width="2.7" stroke-linecap="round"/>
<path d="M37.9968 43.6133L37.9968 46.0978" stroke="#7ABB4A" stroke-width="2.7" stroke-linecap="round"/>
</svg>
