<svg xmlns="http://www.w3.org/2000/svg" id="mdash" width="60" height="60" viewBox="0 0 71 51" fill="none">
<path d="M2.38037 40.6049H23.94V42.2565H47.0603V40.6049H68.6197V43.4948C68.6197 46.5265 66.1754 49 63.1797 49H7.82041C4.82465 49 2.38037 46.527 2.38037 43.4948V40.6049Z" stroke="#7ABB4A" stroke-width="2.91" stroke-miterlimit="22.926" stroke-linecap="round" stroke-linejoin="round"></path>
<path d="M7.19006 40.6055V2.00074H63.8099V40.6055" stroke="#7ABB4A" stroke-width="2.91" stroke-miterlimit="22.926" stroke-linecap="round" stroke-linejoin="round"></path>
<path d="M38.5803 22.8225C37.5617 21.8032 35.9077 21.8032 34.8891 22.8225C33.8704 23.8411 33.8704 25.4947 34.8891 26.5134C35.9077 27.532 37.5617 27.532 38.5803 26.5134C39.599 25.4947 39.599 23.8411 38.5803 22.8225Z" stroke="#7ABB4A" stroke-width="2.91" stroke-miterlimit="10" stroke-linecap="round" stroke-linejoin="round"></path>
<path d="M42.476 18.927L39.3444 22.0586" stroke="#7ABB4A" stroke-width="2.91" stroke-miterlimit="10" stroke-linecap="round" stroke-linejoin="round"></path>
<path d="M23.1166 32.6445C21.8038 30.3773 21.0522 27.7459 21.0522 24.9399C21.0522 16.4351 27.9568 9.53072 36.4614 9.53072C44.9661 9.53072 51.8707 16.4351 51.8707 24.9399C51.8707 27.7459 51.1191 30.3773 49.8063 32.6445" stroke="#7ABB4A" stroke-width="2.91" stroke-miterlimit="10" stroke-linecap="round" stroke-linejoin="round"></path>
</svg>