<svg xmlns="http://www.w3.org/2000/svg" id="merging" width="44.545" height="49.999" viewBox="0 0 44.545 49.999" fill="none"><path d="M43.227 40.009 29.145 27.552V17.543h5.829c1.256 0 1.925 -1.487 1.086 -2.423L22.945 0.485a1.46 1.46 0 0 0 -2.173 0l-13.115 14.636c-0.837 0.935 -0.171 2.423 1.086 2.423h5.829v10.009L0.491 40.009a1.452 1.452 0 0 0 -0.064 2.115l7.091 7.075c0.545 0.544 1.418 0.571 1.995 0.062l12.345 -10.878 12.345 10.878c0.576 0.509 1.451 0.482 1.995 -0.062l7.093 -7.075a1.452 1.452 0 0 0 -0.064 -2.115" fill="#7ABB4A"/></svg>