<svg width="50" height="50" viewBox="0 0 50 50" fill="none" id="mice" xmlns="http://www.w3.org/2000/svg">
<path d="M20.1826 29.8161L20.1841 29.8176C20.9117 30.544 21.3207 31.5307 21.3207 32.561V44.7683V44.7688C21.3209 45.2783 21.2206 45.7828 21.0255 46.2535C20.8304 46.7242 20.5444 47.1518 20.1839 47.5118L20.1824 47.5134C19.456 48.241 18.4693 48.65 17.439 48.65H5.2317H5.23124C4.72173 48.6502 4.21718 48.5499 3.74648 48.3548C3.27579 48.1597 2.84818 47.8737 2.48816 47.5132L2.48663 47.5117C1.75896 46.7853 1.35 45.7986 1.35 44.7683V32.561L1.35 32.5605C1.34983 32.051 1.45015 31.5465 1.64522 31.0758C1.84029 30.6051 2.12628 30.1775 2.48681 29.8174L2.48833 29.8159C3.21472 29.0882 4.20139 28.6793 5.2317 28.6793H17.439H17.4395C17.949 28.6791 18.4535 28.7794 18.9242 28.9745C19.3949 29.1696 19.8225 29.4556 20.1826 29.8161ZM46.3411 29.8161L46.3426 29.8176C47.0703 30.544 47.4792 31.5307 47.4792 32.561V44.7683V44.7688C47.4794 45.2783 47.3791 45.7828 47.184 46.2535C46.9889 46.7242 46.7029 47.1518 46.3424 47.5118L46.3409 47.5134C45.6145 48.241 44.6278 48.65 43.5975 48.65H31.3902H31.3898C30.8802 48.6502 30.3757 48.5499 29.905 48.3548C29.4343 48.1597 29.0067 47.8737 28.6467 47.5132L28.6451 47.5117C27.9175 46.7853 27.5085 45.7986 27.5085 44.7683V32.561V32.5605C27.5083 32.051 27.6087 31.5465 27.8037 31.0758C27.9988 30.6051 28.2848 30.1775 28.6453 29.8174L28.6468 29.8159C29.3732 29.0882 30.3599 28.6793 31.3902 28.6793H43.5975H43.598C44.1075 28.6791 44.612 28.7794 45.0827 28.9745C45.5534 29.1696 45.981 29.4556 46.3411 29.8161ZM20.1826 3.6576L20.1841 3.65911C20.9117 4.3855 21.3207 5.37217 21.3207 6.40249V18.6098V18.6102C21.3209 19.1198 21.2206 19.6243 21.0255 20.095C20.8304 20.5657 20.5444 20.9933 20.1839 21.3533L20.1824 21.3549C19.456 22.0825 18.4693 22.4915 17.439 22.4915L5.2317 22.4915L5.23124 22.4915C4.72173 22.4917 4.21718 22.3913 3.74648 22.1963C3.27579 22.0012 2.84818 21.7152 2.48816 21.3547L2.48663 21.3532C1.75896 20.6268 1.35 19.6401 1.35 18.6098V6.40249L1.35 6.40203C1.34983 5.89251 1.45015 5.38796 1.64522 4.91727C1.84029 4.44657 2.12627 4.01897 2.48681 3.65894L2.48833 3.65742C3.21472 2.92974 4.20138 2.52078 5.2317 2.52078H17.439L17.4395 2.52078C17.949 2.52061 18.4535 2.62093 18.9242 2.816C19.3949 3.01107 19.8225 3.29706 20.1826 3.6576ZM47.5135 15.2505L40.2382 22.5258C40.2382 22.5258 40.2381 22.5259 40.2381 22.5259C39.5102 23.2535 38.5231 23.6623 37.4939 23.6623C36.4646 23.6623 35.4776 23.2535 34.7496 22.5259C34.7496 22.5259 34.7495 22.5258 34.7495 22.5258L27.4742 15.2505C26.7465 14.5226 26.3377 13.5354 26.3377 12.5061C26.3377 11.4769 26.7465 10.4897 27.4742 9.76178L34.7495 2.48651C34.7495 2.48646 34.7496 2.48641 34.7496 2.48637C35.4776 1.75875 36.4646 1.35 37.4939 1.35C38.5231 1.35 39.5102 1.75875 40.2381 2.48637C40.2381 2.48641 40.2382 2.48646 40.2382 2.48651L47.5135 9.76178C48.2412 10.4897 48.65 11.4769 48.65 12.5061C48.65 13.5354 48.2412 14.5226 47.5135 15.2505Z" stroke="#7ABB4A" stroke-width="2.7"/>
</svg>
