<svg xmlns="http://www.w3.org/2000/svg" width="51" height="43.52" id="Mileage" viewBox="0 0 51 43.52" fill="none"><path d="M50.321 23.396c-0.486 5.128 -5.064 8.912 -10.225 8.912h-1.421c0 -7.424 -6.052 -13.462 -13.491 -13.462a13.347 13.347 0 0 0 -7.422 2.249l-0.554 -0.553a3.214 3.214 0 0 0 -2.281 -0.946c-0.856 0 -1.679 0.34 -2.286 0.945a3.233 3.233 0 0 0 -0.95 2.28v7.16c0 0.919 0.401 1.74 1.021 2.326H9.391c-4.727 0 -8.944 -3.47 -9.355 -8.169a8.949 8.949 0 0 1 1.241 -5.412 8.988 8.988 0 0 1 4.193 -3.65c-0.505 -4.997 3.954 -8.717 8.61 -7.739a13.472 13.472 0 0 1 4.965 -5.357A13.501 13.501 0 0 1 26.083 0c6.992 0 12.724 5.311 13.406 12.106a0.52 0.52 0 0 0 0.548 0.471 9.911 9.911 0 0 1 7.615 3.069 9.854 9.854 0 0 1 2.668 7.751" fill="#7ABB4A"/><path d="M35.976 32.309c0 5.939 -4.84 10.769 -10.792 10.769a10.816 10.816 0 0 1 -5.91 -1.757 10.777 10.777 0 0 1 -3.982 -4.699 1.793 1.793 0 0 1 0.918 -2.384 1.802 1.802 0 0 1 2.378 0.945 7.188 7.188 0 0 0 3.296 3.5 7.212 7.212 0 0 0 8.88 -1.85 7.178 7.178 0 0 0 1.617 -4.524c0 -3.96 -3.227 -7.18 -7.195 -7.18a7.217 7.217 0 0 0 -5.073 2.118l2.365 2.359a0.532 0.532 0 0 1 -0.377 0.907h-7.174a0.534 0.534 0 0 1 -0.534 -0.531v-7.157c0 -0.474 0.574 -0.71 0.91 -0.376l2.274 2.268a10.816 10.816 0 0 1 7.61 -3.177c5.952 0 10.792 4.83 10.792 10.77" fill="#7ABB4A"/></svg>
<svg xmlns="http://www.w3.org/2000/svg" width="65" height="50" id="Mileage" viewBox="-18 1 190 126.533" fill="none"><path d="M157.87 73.399c-1.525 16.088 -15.887 27.959 -32.078 27.959h-4.458c0 -23.291 -18.987 -42.234 -42.325 -42.234a41.882 41.882 0 0 0 -23.285 7.056l-1.738 -1.735a10.071 10.071 0 0 0 -7.156 -2.968 10.165 10.165 0 0 0 -7.172 2.965 10.133 10.133 0 0 0 -2.98 7.153v22.463c0 2.883 1.258 5.459 3.203 7.297H29.462c-14.83 0 -28.06 -10.886 -29.349 -25.628a28.078 28.078 0 0 1 3.893 -16.979 28.235 28.235 0 0 1 13.155 -11.451c-1.584 -15.677 12.405 -27.347 27.012 -24.279a42.259 42.259 0 0 1 15.576 -16.806A42.353 42.353 0 0 1 81.829 0c21.936 0 39.918 16.662 42.058 37.98a1.631 1.631 0 0 0 1.719 1.478 31.09 31.09 0 0 1 23.89 9.628 30.902 30.902 0 0 1 8.37 24.317" fill="#7ABB4A"></path><path d="M112.866 101.362c0 18.632 -15.184 33.785 -33.857 33.785a33.882 33.882 0 0 1 -18.541 -5.512 33.882 33.882 0 0 1 -12.493 -14.742 5.625 5.625 0 0 1 2.88 -7.479 5.647 5.647 0 0 1 7.46 2.965 22.588 22.588 0 0 0 10.34 10.98 22.62 22.62 0 0 0 27.859 -5.804 22.525 22.525 0 0 0 5.073 -14.193c0 -12.424 -10.124 -22.525 -22.573 -22.525a22.651 22.651 0 0 0 -15.915 6.645l7.42 7.401a1.669 1.669 0 0 1 -1.183 2.845h-22.507a1.675 1.675 0 0 1 -1.675 -1.666v-22.453c0 -1.487 1.801 -2.227 2.855 -1.18l7.134 7.115a33.945 33.945 0 0 1 23.875 -9.967c18.673 0 33.857 15.153 33.857 33.788" fill="#7ABB4A"></path></svg>