<svg width="45" height="45" viewBox="0 0 45 45" id="mCustomize" fill="none" xmlns="http://www.w3.org/2000/svg"><path d="M37.5 45H7.5C3.364 45 0 41.636 0 37.5V7.5C0 3.364 3.364 0 7.5 0h13.5a1.5 1.5 0 1 1 0 3h-13.5c-2.481 0 -4.5 2.019 -4.5 4.5v30.001c0 2.481 2.019 4.5 4.5 4.5h30.001c2.481 0 4.5 -2.019 4.5 -4.5v-13.5a1.499 1.499 0 1 1 3 0v13.5C45 41.636 41.636 45 37.5 45M45 8.176c0 1.953 -0.702 3.649 -1.977 4.923L25.94 30.182A4.473 4.473 0 0 1 22.757 31.5h-7.758A1.5 1.5 0 0 1 13.5 30v-7.758c0 -1.201 0.468 -2.331 1.319 -3.182l17.084 -17.082A6.705 6.705 0 0 1 36.674 0h0.151c1.803 0 3.497 0.702 4.773 1.977l1.425 1.424A6.705 6.705 0 0 1 45 8.176m-8.121 6.825 -6.879 -6.879 -13.061 13.06a1.512 1.512 0 0 0 -0.44 1.06v6.259h6.258a1.494 1.494 0 0 0 1.061 -0.44zm5.121 -6.676c0 -1.151 -0.39 -2.094 -1.098 -2.802l-1.425 -1.424a3.726 3.726 0 0 0 -2.652 -1.098h-0.151a3.726 3.726 0 0 0 -2.651 1.098l-1.901 1.902 6.879 6.879 1.902 -1.902a3.726 3.726 0 0 0 1.098 -2.653" fill="#7ABB4A"/></svg>