<svg width="60" height="60" id="mLog" viewBox="-10 0 60 60" fill="none" xmlns="http://www.w3.org/2000/svg">
<path d="M32.3567 58H6.76675C4.13412 58 2 55.9815 2 53.4915V6.50848C2 4.01849 4.13412 2 6.76675 2H32.3567C34.9893 2 37.1234 4.01849 37.1234 6.50848V53.4915C37.1234 55.9815 34.9893 58 32.3567 58Z" stroke="#7ABB4A" stroke-width="2.91" stroke-miterlimit="10" stroke-linecap="round" stroke-linejoin="round"></path>
<path d="M15.6058 50.8477H24.0016" stroke="#7ABB4A" stroke-width="2.91" stroke-miterlimit="10" stroke-linecap="round" stroke-linejoin="round"></path>
<path d="M22.2343 8.57617H17.3736C15.0551 8.57617 13.1757 6.57848 13.1757 4.11415V2.00056H26.4322V4.11415C26.4322 6.57848 24.5527 8.57617 22.2343 8.57617Z" stroke="#7ABB4A" stroke-width="2.91" stroke-miterlimit="10" stroke-linecap="round" stroke-linejoin="round"></path>
<path d="M22.6163 27.8938C21.37 26.5682 19.3462 26.5682 18.0999 27.8938C16.8535 29.2186 16.8535 31.3691 18.0999 32.6939C19.3462 34.0187 21.37 34.0187 22.6163 32.6939C23.8628 31.3691 23.8628 29.2186 22.6163 27.8938Z" fill="#7ABB4A"></path>
<path d="M24.2622 26.1593L22.0068 28.5566" stroke="#7ABB4A" stroke-width="2.91" stroke-miterlimit="10" stroke-linecap="round" stroke-linejoin="round"></path>
<path d="M10.3193 36.6641C9.37379 34.9285 8.83252 32.914 8.83252 30.766C8.83252 24.2552 13.8053 18.9698 19.9305 18.9698C26.0556 18.9698 31.0284 24.2552 31.0284 30.766C31.0284 32.914 30.4871 34.9285 29.5416 36.6641" stroke="#7ABB4A" stroke-width="2.91" stroke-miterlimit="10" stroke-linecap="round" stroke-linejoin="round"></path>
</svg>