<svg xmlns="http://www.w3.org/2000/svg" width="50" height="48.677" id="Location" viewBox="0 0 50 48.677" fill="none"><path d="M44.643 37.937c5.489 -3.092 6.863 -19.515 3.644 -28.725 -1.769 -5.061 -4.161 -5.816 -5.429 -5.816s-3.661 0.756 -5.429 5.816c-2.285 6.537 -2.287 16.86 0 23.401 1.113 3.184 2.472 4.663 3.644 5.323v6.361H35.714v4.379h14.286v-4.379h-5.357zM0 48.677h8.929v-14.626h14.286v14.626h8.929V0H0zM21.429 5.585h3.571v4.379H21.429zm0 8.758h3.571v4.379H21.429zm0 8.759h3.571v4.379H21.429zM14.286 5.585h3.571v4.379H14.286zm0 8.758h3.571v4.379H14.286zm0 8.759h3.571v4.379H14.286zM7.143 5.585h3.571v4.379H7.143zm0 8.758h3.571v4.379H7.143zm0 8.759h3.571v4.379H7.143z" fill="#7ABB4A"/><path d="M12.5 38.431h7.143v10.247h-7.143z" fill="#7ABB4A"/></svg>