<svg width="33" height="50" viewBox="0 0 33 50" id="device" fill="none" xmlns="http://www.w3.org/2000/svg">
<path d="M12.051 4.1999H20.949C22.09 4.19871 23.1935 3.8288 24.063 3.15605C24.9324 2.4833 25.7041 1.02508 25.8894 0H7.1106C7.29592 1.02508 8.06755 2.4833 8.93701 3.15605C9.80647 3.8288 10.91 4.19871 12.051 4.1999Z" fill="#7ABB4A"/>
<path d="M28.9235 0.213391C28.719 2.01012 27.791 3.67426 26.3184 4.88473C24.8458 6.09521 22.933 6.76627 20.949 6.76843H12.051C10.067 6.76627 8.15424 6.09521 6.68164 4.88473C5.20903 3.67426 4.28097 2.01012 4.0765 0.213391C2.94947 0.351279 1.91549 0.8563 1.166 1.63495C0.416507 2.4136 0.00227543 3.41313 0 4.44848V45.727C0.00254182 46.8595 0.49782 47.945 1.37742 48.7459C2.25702 49.5467 3.44928 49.9977 4.69321 50H28.3068C29.5507 49.9977 30.743 49.5467 31.6226 48.7459C32.5022 47.945 32.9975 46.8595 33 45.727V4.44848C32.9977 3.41313 32.5835 2.4136 31.834 1.63495C31.0845 0.8563 30.0505 0.351279 28.9235 0.213391ZM21.9312 46.3264H11.0688C10.6436 46.3264 10.2358 46.1726 9.9351 45.8989C9.63443 45.6251 9.46552 45.2538 9.46552 44.8667C9.46552 44.4796 9.63443 44.1083 9.9351 43.8345C10.2358 43.5608 10.6436 43.407 11.0688 43.407H21.9312C22.3564 43.407 22.7642 43.5608 23.0649 43.8345C23.3656 44.1083 23.5345 44.4796 23.5345 44.8667C23.5345 45.2538 23.3656 45.6251 23.0649 45.8989C22.7642 46.1726 22.3564 46.3264 21.9312 46.3264Z" fill="#7ABB4A"/>
<path d="M11.624 24.9098L15.5114 28.509L22.9572 21.625" stroke="white" stroke-width="3" stroke-linecap="round" stroke-linejoin="round"/>
</svg>
