<svg width="60" height="54" viewBox="0 0 60 54" fill="none" id="onboarding" xmlns="http://www.w3.org/2000/svg">
<path d="M30.633 8.6744L37.5261 3.69052C40.2374 1.72998 43.9709 2.02816 46.3367 4.39397L53.6079 11.6651C59.0155 17.0728 59.0155 25.8404 53.6079 31.2481L33.988 50.8679C32.5463 52.3098 30.1971 52.398 28.7163 50.9963C27.18 49.5419 27.1548 47.117 28.6409 45.631M30.633 8.6744L28.927 6.96841M30.633 8.6744L38.0043 16.0458M28.6409 45.631L26.932 47.3398C25.4901 48.7816 23.1409 48.87 21.6602 47.4683C20.1238 46.014 20.0988 43.589 21.5849 42.1028M28.6409 45.631L36.6025 37.6694M21.5849 42.1028L19.8759 43.8119C18.4341 45.2536 16.0849 45.342 14.6042 43.9402C13.0678 42.4859 13.0427 40.0609 14.5287 38.5749M21.5849 42.1028L31.3105 32.3773M14.5287 38.5749L12.8199 40.2838C11.378 41.7256 9.02882 41.814 7.54809 40.4122C6.01173 38.958 5.98669 36.533 7.47273 35.0468L26.9471 15.5724M14.5287 38.5749L26.0183 27.0854M26.9471 15.5724L32.6573 21.2827C34.099 22.7246 36.4482 22.8127 37.9289 21.4111C39.4653 19.9567 39.4904 17.5318 38.0043 16.0458M26.9471 15.5724L8.66187 33.8577L6.05211 31.2481C0.644514 25.8404 0.644514 17.0728 6.05211 11.6651L13.7213 3.99586C15.9069 1.81041 19.2899 1.3696 21.9624 2.92223L28.927 6.96841M38.0043 16.0458L28.927 6.96841" stroke="#7ABB4A" stroke-width="2.91049" stroke-miterlimit="10"/>
</svg>
