<svg xmlns="http://www.w3.org/2000/svg" width="50" height="50" viewBox="0 0 50 75" id="protips" fill="none"><path d="M15.041 58.917h20.496V61.714H15.043zm0 5.616a3.357 3.357 0 0 0 3.363 3.356h13.771a3.357 3.357 0 0 0 3.361 -3.356v-0.176H15.043zm10.246 8.254c1.406 0 2.767 -0.489 3.851 -1.381a6.029 6.029 0 0 0 2.089 -3.514h-11.88a6.029 6.029 0 0 0 2.087 3.514 6.057 6.057 0 0 0 3.853 1.381m24.364 -49.369C48.54 11.596 38.769 2.161 26.891 1.409 12.631 0.51 0.807 11.78 0.807 25.797c0 7.266 3.179 13.793 8.236 18.271 2.557 2.259 4.119 5.417 4.119 8.826v0.317h1.88v3.064h20.496v-3.064h1.88v-0.317c0 -3.396 1.536 -6.553 4.091 -8.813 5.6 -4.954 8.924 -12.431 8.143 -20.663m-17.847 7.9h-2.014v21.893H27.143V31.32h-3.72v21.891h-2.649V31.32h-2.013a4.577 4.577 0 0 1 -4.581 -4.571c0 -1.214 0.477 -2.364 1.324 -3.237 2.767 -2.709 7.839 -0.964 7.839 3.237v1.929h3.893v-1.929a4.571 4.571 0 0 1 1.324 -3.237c2.794 -2.734 7.839 -0.951 7.839 3.237a4.571 4.571 0 0 1 -1.35 3.233 4.6 4.6 0 0 1 -3.244 1.339" fill="#7ABB4A"></path><path d="M33.747 26.753c0 -1.784 -2.144 -2.516 -3.314 -1.367 -0.243 0.247 -0.553 0.7 -0.553 1.367v1.924h1.929c1.069 0 1.939 -0.864 1.939 -1.924M17.386 25.386a1.936 1.936 0 0 0 1.384 3.293h1.929v-1.926c0 -1.753 -2.096 -2.564 -3.311 -1.367" fill="#7ABB4A"></path></svg>