<svg width="50" height="49.02" id="quiet" viewBox="0 0 50 49.02" fill="none" xmlns="http://www.w3.org/2000/svg"><path d="M36.171 6.498c0 -1.285 0.382 -2.542 1.099 -3.61A6.52 6.52 0 0 1 40.197 0.495a6.549 6.549 0 0 1 7.108 1.408 6.475 6.475 0 0 1 1.414 7.081 6.5 6.5 0 0 1 -2.402 2.916 6.539 6.539 0 0 1 -8.233 -0.81 6.49 6.49 0 0 1 -1.913 -4.592M47.437 18.657v11.375a11.788 11.788 0 0 1 -3.467 8.337 11.875 11.875 0 0 1 -8.369 3.453H32.02a2.382 2.382 0 0 0 -1.895 0.94l-3.56 4.706A3.373 3.373 0 0 1 23.719 49.02a3.392 3.392 0 0 1 -2.846 -1.551l-3.559 -4.702a2.637 2.637 0 0 0 -1.897 -0.945h-3.558a11.882 11.882 0 0 1 -8.385 -3.461A11.794 11.794 0 0 1 0 30.008v-16.422c0 -3.133 1.249 -6.138 3.474 -8.354a11.882 11.882 0 0 1 8.385 -3.461h18.628a2.373 2.373 0 0 1 1.828 0.873 2.353 2.353 0 0 1 0.477 1.961 10.294 10.294 0 0 0 0.067 4.152 9.961 9.961 0 0 0 2.687 4.86 10.029 10.029 0 0 0 4.878 2.676c1.371 0.304 2.788 0.325 4.167 0.065A2.373 2.373 0 0 1 47.206 17.647c0.151 0.316 0.23 0.66 0.231 1.01m-30.834 4.38a2.353 2.353 0 0 0 -1.464 -2.183 2.382 2.382 0 0 0 -2.585 0.513 2.36 2.36 0 0 0 1.676 4.033 2.382 2.382 0 0 0 1.676 -0.694 2.353 2.353 0 0 0 0.696 -1.669m9.487 0a2.353 2.353 0 0 0 -1.464 -2.183 2.382 2.382 0 0 0 -2.585 0.513 2.36 2.36 0 0 0 1.676 4.033 2.382 2.382 0 0 0 1.676 -0.694 2.353 2.353 0 0 0 0.696 -1.669m9.487 0a2.353 2.353 0 0 0 -1.464 -2.183 2.382 2.382 0 0 0 -2.585 0.513 2.363 2.363 0 0 0 -0.514 2.575 2.363 2.363 0 0 0 2.191 1.459 2.382 2.382 0 0 0 1.675 -0.694 2.363 2.363 0 0 0 0.696 -1.669" fill="#7ABB4A"/></svg>
