<svg width="49" height="49" id="Reporting" viewBox="0 0 49 49" fill="none" xmlns="http://www.w3.org/2000/svg">
<path d="M7.14727 22.5188C8.28537 22.5188 9.31543 22.0632 10.0765 21.3316L14.2523 23.4145C14.2313 23.5842 14.2005 23.751 14.2005 23.9262C14.2005 26.2543 16.099 28.1484 18.4324 28.1484C20.7658 28.1484 22.6644 26.2542 22.6644 23.9262C22.6644 23.2763 22.5042 22.6679 22.24 22.1174L27.9047 16.4657C28.4565 16.7293 29.0662 16.8891 29.7176 16.8891C32.0511 16.8891 33.9495 14.9949 33.9495 12.6668C33.9495 12.2284 33.8632 11.8139 33.7383 11.4163L38.6601 7.73425C39.3316 8.18181 40.1366 8.44453 41.0027 8.44453C43.3362 8.44453 45.2347 6.55033 45.2347 4.22227C45.2347 1.8942 43.3361 0 41.0027 0C38.6693 0 36.7708 1.8942 36.7708 4.22227C36.7708 4.66063 36.8571 5.07516 36.982 5.47281L32.0602 9.15481C31.3887 8.70725 30.5837 8.44453 29.7176 8.44453C27.3841 8.44453 25.4856 10.3387 25.4856 12.6668C25.4856 13.3167 25.6458 13.925 25.91 14.4755L20.2453 20.1273C19.6935 19.8637 19.0838 19.7039 18.4324 19.7039C17.2943 19.7039 16.2643 20.1594 15.5032 20.891L11.3274 18.8081C11.3484 18.6385 11.3792 18.4717 11.3792 18.2965C11.3792 15.9683 9.48075 14.0742 7.14727 14.0742C4.81378 14.0742 2.91533 15.9684 2.91533 18.2965C2.91533 20.6245 4.81387 22.5188 7.14727 22.5188Z" fill="#7ABB4A"/>
<path d="M46.7394 45.2252H45.2347V15.4816C45.2347 14.7038 44.6036 14.0742 43.824 14.0742H38.1814C37.4018 14.0742 36.7708 14.7038 36.7708 15.4816V45.2252H33.9495V23.9262C33.9495 23.1483 33.3185 22.5188 32.5389 22.5188H26.8963C26.1167 22.5188 25.4856 23.1483 25.4856 23.9262V45.2252H22.6644V35.1855C22.6644 34.4077 22.0333 33.7781 21.2537 33.7781H15.6111C14.8315 33.7781 14.2005 34.4077 14.2005 35.1855V45.2252H11.3792V29.5559C11.3792 28.778 10.7482 28.1484 9.96856 28.1484H4.32598C3.54636 28.1484 2.91533 28.778 2.91533 29.5559V45.2252H1.41064C0.631028 45.2252 0 45.8547 0 46.6326C0 47.4104 0.631028 48.04 1.41064 48.04H46.7394C47.519 48.04 48.15 47.4104 48.15 46.6326C48.15 45.8547 47.519 45.2252 46.7394 45.2252Z" fill="#7ABB4A"/>
</svg>
