<svg xmlns="http://www.w3.org/2000/svg" width="50" height="50" id="Route" viewBox="0 0 52 53" fill="none">
<path d="M0.56543 17.9949V49.3028C0.56543 51.0498 1.93152 52.4791 3.60118 52.4791H47.9797C49.6493 52.4791 51.0154 51.0498 51.0154 49.3028V17.9949H0.56543ZM51.0154 16.0892V9.91755C51.0154 8.17063 49.6493 6.74132 47.9797 6.74132H43.7114V8.8821C43.7114 10.9848 42.0782 12.6936 40.0685 12.6936C38.0589 12.6936 36.4256 10.9848 36.4256 8.8821V6.74132H15.1492V8.8821C15.1492 10.9848 13.5159 12.6936 11.5063 12.6936C9.4966 12.6936 7.86337 10.9848 7.86337 8.8821V6.74132H3.60118C1.93152 6.74132 0.56543 8.17063 0.56543 9.91755V16.0892H51.0154Z" fill="#7ABB4A"/>
<path d="M11.5063 10.7878C12.5141 10.7878 13.3277 9.93661 13.3277 8.8821V2.6948C13.3277 1.64029 12.5141 0.789062 11.5063 0.789062C10.4984 0.789062 9.68482 1.64029 9.68482 2.6948V8.8821C9.68482 9.93661 10.4984 10.7878 11.5063 10.7878ZM40.0685 10.7878C41.0764 10.7878 41.89 9.93661 41.89 8.8821V2.6948C41.89 1.64029 41.0764 0.789062 40.0685 0.789062C39.0607 0.789062 38.2471 1.64029 38.2471 2.6948V8.8821C38.2471 9.93661 39.0607 10.7878 40.0685 10.7878Z" fill="#7ABB4A"/>
<path fill-rule="evenodd" clip-rule="evenodd" d="M26.2156 22.4258C30.8984 22.4258 34.6943 26.0837 34.6943 30.5959C34.6943 31.9797 34.3363 33.3149 33.6634 34.5035C33.6516 34.5305 33.6379 34.5575 33.6223 34.5839L26.8942 46.0853C26.5962 46.5949 25.8349 46.595 25.5366 46.0856L18.8006 34.5843C18.7758 34.542 18.7559 34.4989 18.7404 34.4554C18.0849 33.279 17.7363 31.9611 17.7363 30.5959C17.7363 26.0838 21.5327 22.4258 26.2156 22.4258ZM26.3027 33.6226C28.1223 33.6226 29.5975 32.1678 29.5975 30.3731C29.5975 28.5784 28.1223 27.1236 26.3027 27.1236C24.483 27.1236 23.0078 28.5784 23.0078 30.3731C23.0078 32.1678 24.483 33.6226 26.3027 33.6226Z" fill="white"/>
</svg>