<svg xmlns="http://www.w3.org/2000/svg" id="work" width="48" height="47.077" viewBox="0 0 48 47.077" fill="none"><path d="M24.217 0.878c-12.983 0 -23.538 10.357 -23.538 23.077 0 12.729 10.555 23.077 23.538 23.077 12.974 0 23.538 -10.348 23.538 -23.077 0 -12.719 -10.564 -23.077 -23.538 -23.077m-0.942 4.348a0.923 0.923 0 0 1 0.275 -0.653 0.951 0.951 0 0 1 1.331 0 0.923 0.923 0 0 1 0.276 0.653v2.422a0.905 0.905 0 0 1 -0.263 0.675 0.942 0.942 0 0 1 -0.678 0.283 0.96 0.96 0 0 1 -0.678 -0.283 0.923 0.923 0 0 1 -0.263 -0.674zM7.578 24.881H5.107c-0.249 0 -0.489 -0.097 -0.666 -0.27a0.914 0.914 0 0 1 0 -1.306 0.951 0.951 0 0 1 0.666 -0.27h2.472c0.249 0 0.489 0.098 0.666 0.271a0.914 0.914 0 0 1 0 1.305 0.951 0.951 0 0 1 -0.666 0.27m5.539 11.263L11.372 37.855a0.942 0.942 0 0 1 -0.667 0.271 0.951 0.951 0 0 1 -0.666 -0.271 0.923 0.923 0 0 1 -0.277 -0.653 0.905 0.905 0 0 1 0.277 -0.654l1.749 -1.712a0.951 0.951 0 0 1 1.331 0 0.914 0.914 0 0 1 0 1.305m0 -23.066a0.942 0.942 0 0 1 -0.666 0.271 0.951 0.951 0 0 1 -0.666 -0.271l-1.746 -1.714a0.914 0.914 0 0 1 0 -1.305 0.951 0.951 0 0 1 1.332 0l1.747 1.714a0.909 0.909 0 0 1 0 1.305m12.038 29.612a0.905 0.905 0 0 1 -0.263 0.674 0.942 0.942 0 0 1 -0.678 0.282 0.96 0.96 0 0 1 -0.678 -0.282 0.923 0.923 0 0 1 -0.263 -0.674v-2.424a0.905 0.905 0 0 1 0.263 -0.674 0.942 0.942 0 0 1 0.678 -0.283 0.96 0.96 0 0 1 0.678 0.282 0.923 0.923 0 0 1 0.263 0.675zm-0.94 -14.908a3.951 3.951 0 0 1 -2.395 -0.814 3.812 3.812 0 0 1 -1.378 -2.088H14.465c-0.249 0 -0.489 -0.097 -0.666 -0.27a0.914 0.914 0 0 1 0 -1.306 0.951 0.951 0 0 1 0.666 -0.27h5.979c0.172 -0.67 0.526 -1.282 1.025 -1.77a3.914 3.914 0 0 1 1.806 -1.004v-7.724a0.923 0.923 0 0 1 0.276 -0.653 0.951 0.951 0 0 1 1.331 0 0.923 0.923 0 0 1 0.275 0.653v7.724a3.905 3.905 0 0 1 2.13 1.35 3.785 3.785 0 0 1 0.831 2.348 3.785 3.785 0 0 1 -1.144 2.704 3.951 3.951 0 0 1 -2.757 1.122m14.177 10.074a0.942 0.942 0 0 1 -0.665 0.271 0.96 0.96 0 0 1 -0.666 -0.271l-1.748 -1.712a0.923 0.923 0 0 1 -0.277 -0.654 0.914 0.914 0 0 1 0.277 -0.653 0.942 0.942 0 0 1 0.666 -0.271 0.96 0.96 0 0 1 0.666 0.27l1.747 1.713a0.911 0.911 0 0 1 0 1.307zm0 -26.492 -1.749 1.714a0.942 0.942 0 0 1 -0.665 0.271 0.951 0.951 0 0 1 -0.666 -0.271 0.923 0.923 0 0 1 -0.277 -0.654 0.905 0.905 0 0 1 0.277 -0.654l1.747 -1.712a0.942 0.942 0 0 1 0.666 -0.27 0.96 0.96 0 0 1 0.666 0.27 0.923 0.923 0 0 1 0.276 0.653 0.905 0.905 0 0 1 -0.275 0.653m4.932 11.67c0.249 0 0.489 0.098 0.666 0.271a0.914 0.914 0 0 1 0 1.305 0.951 0.951 0 0 1 -0.666 0.27h-2.472c-0.249 0 -0.489 -0.097 -0.666 -0.27a0.914 0.914 0 0 1 0 -1.306 0.951 0.951 0 0 1 0.666 -0.27z" fill="#7ABB4A"/><path d="M24.216 25.937c1.115 0 2.018 -0.886 2.018 -1.979s-0.903 -1.979 -2.018 -1.979 -2.019 0.886 -2.019 1.979 0.905 1.978 2.019 1.978" fill="#7ABB4A"/></svg>
