<svg xmlns="http://www.w3.org/2000/svg" id="tags" width="50" height="48.077" viewBox="0 0 66.346 51.923" id="tags" fill="none"><path d="M18.295 49.994a5.038 5.038 0 0 0 7.113 0l24.35 -24.296a7.115 7.115 0 0 0 1.587 -2.414c2.447 0.684 4.827 1.046 6.924 1.033 5.19 -0.027 6.912 -2.294 7.476 -3.649 0.564 -1.341 0.968 -4.16 -2.676 -7.862l-0.12 -0.121c-2.26 -2.254 -5.539 -4.334 -9.264 -5.876a49.038 49.038 0 0 0 -2.043 -0.779V5.99a5.5 5.5 0 0 0 -5.433 -5.42L31.62 0.368a7.106 7.106 0 0 0 -5.15 2.093L2.107 26.758a5.013 5.013 0 0 0 0 7.097zm18.769 -40.933a4.169 4.169 0 0 1 5.89 0 4.135 4.135 0 0 1 1.169 3.542c1.6 1.127 3.51 2.173 5.553 3.019 0.726 0.294 1.425 0.563 2.098 0.791l-0.081 -5.85c0.121 0.054 0.228 0.094 0.349 0.148 3.187 1.328 6.051 3.125 7.892 4.963l0.081 0.081c1.748 1.785 1.937 2.925 1.788 3.273 -0.457 1.087 -5.365 2.053 -12.813 -1.046 -2.178 -0.912 -4.221 -2.038 -5.875 -3.26 -0.055 0.067 -0.122 0.135 -0.176 0.201a4.169 4.169 0 0 1 -5.888 0c-1.613 -1.61 -1.613 -4.239 0.013 -5.863" fill="#7ABB4A"/></svg>