<svg width="47" height="47" id="TripEdit" viewBox="0 0 47 47" fill="none" xmlns="http://www.w3.org/2000/svg">
<path d="M45.3432 5.69451L41.1024 1.45326C39.1645 -0.484464 36.0119 -0.484373 34.0743 1.45326L32.4144 3.11328L43.6833 14.3831L45.3432 12.7231C47.2854 10.7808 47.2857 7.63698 45.3432 5.69451ZM2.01199 34.437L0.0229 45.1792C-0.0175747 45.3978 -0.00425197 45.6231 0.0617194 45.8355C0.127691 46.0479 0.244331 46.241 0.401583 46.3983C0.558834 46.5556 0.751978 46.6722 0.964361 46.7382C1.17674 46.8042 1.40199 46.8176 1.62068 46.7771L12.362 44.7879L2.01199 34.437ZM30.4755 5.05238L3.4915 32.0384L14.7604 43.3082L41.7444 16.3222L30.4755 5.05238Z" fill="#7ABB4A"/>
</svg>
