<svg width="51" height="51" id="turningOff" viewBox="0 0 51 51" fill="none" xmlns="http://www.w3.org/2000/svg">
<ellipse cx="25.09" cy="25.025" rx="25.09" ry="25.025" fill="#7ABB4A"/>
<path d="M30.3815 13.4366C29.7728 13.1767 29.0638 13.4483 28.7979 14.0432C28.532 14.6381 28.8099 15.331 29.4185 15.5909C33.3316 17.2617 35.9145 21.0444 35.9145 25.2901C35.9145 31.1324 31.0678 35.8689 25.0905 35.8689C19.1125 35.8689 14.2666 31.1328 14.2666 25.2901C14.2666 21.0453 16.8486 17.2627 20.7605 15.5908C21.3691 15.3307 21.6467 14.6377 21.3806 14.0429C21.1145 13.4481 20.4054 13.1767 19.7969 13.4369C15.0169 15.4796 11.8613 20.1027 11.8613 25.2901C11.8613 32.4311 17.7841 38.2198 25.0906 38.2198C32.3963 38.2198 38.3199 32.4307 38.3199 25.2901C38.3199 20.1015 35.163 15.4782 30.3815 13.4366Z" fill="white"/>
<path d="M25.0901 22.9395C25.7543 22.9395 26.2927 22.4132 26.2927 21.7641V11.1852C26.2928 10.536 25.7543 10.0098 25.0901 10.0098C24.4259 10.0098 23.8875 10.536 23.8875 11.1852V21.764C23.8875 22.4132 24.4259 22.9395 25.0901 22.9395Z" fill="white"/>
</svg>
