<svg width="50" height="50" viewBox="0 0 50 50" id="using" fill="none" xmlns="http://www.w3.org/2000/svg">
<g clip-path="url(#clip0_12024_25701)">
<path d="M12.1288 37.1247H3.98486V45.6296M37.2939 12.2548L45.5243 12.257V4.11914" stroke="#7ABB4A" stroke-width="2.9" stroke-miterlimit="10"/>
<path d="M48.5352 25C48.5352 37.998 37.998 48.5352 25 48.5352C16.4371 48.5352 8.94238 43.9622 4.82461 37.1253M1.46484 25C1.46484 12.0019 12.0019 1.46484 25 1.46484C33.3024 1.46484 40.6009 5.76387 44.7904 12.2574" stroke="#7ABB4A" stroke-width="2.9" stroke-miterlimit="10"/>
<path d="M25.0001 29.7043C27.7209 29.7043 29.9265 27.4982 29.9265 24.777C29.9265 22.0557 27.7209 19.8496 25.0001 19.8496C22.2793 19.8496 20.0737 22.0557 20.0737 24.777C20.0737 27.4982 22.2793 29.7043 25.0001 29.7043Z" stroke="#7ABB4A" stroke-width="2.9" stroke-miterlimit="10"/>
<path d="M37.9243 27.7448V22.2532H35.1824C34.962 21.362 34.6248 20.5038 34.1795 19.7009L36.08 17.8L32.1977 13.9169L30.3563 15.7587C29.5404 15.2728 28.662 14.9007 27.7454 14.6526V12.0723H22.2548V14.6526C21.3382 14.9007 20.4598 15.2728 19.6439 15.7587L17.8025 13.9169L13.9202 17.8L15.8207 19.7009C15.3754 20.5038 15.0382 21.362 14.8178 22.2532H12.0759V27.7448H14.9362C15.1827 28.583 15.5335 29.3868 15.9803 30.1375L13.9202 32.1981L17.8025 36.0812L19.9217 33.9615C20.6583 34.3701 21.4417 34.6879 22.2548 34.9079V37.9259H27.7454V34.9079C28.5584 34.6879 29.3419 34.3701 30.0785 33.9615L32.1977 36.0812L36.08 32.1981L34.0199 30.1375C34.4667 29.3868 34.8175 28.5829 35.064 27.7448H37.9243Z" stroke="#7ABB4A" stroke-width="2.9" stroke-miterlimit="10"/>
</g>
<defs>
<clipPath id="clip0_12024_25701">
<rect width="50" height="50" fill="white"/>
</clipPath>
</defs>
</svg>
